:SAMPLES-PER-SECOND 30
:FULLY-SPECIFIED
:DEGREES
474
root  -32.2687 39.0715 -18.3295 -3.2735 -7.33348 -4.40056
RightUpLeg  -13.202 -4.05053 -1.85779
RightLeg  -0.342543 22.4644 -0.944347
RightFoot  -1.89644 -1.32248 16.0628
RightToes  2.96859e-009 0 -3.6325e-017
Spine  7.24757 -1.98165 -0.177624
Spine1  8.26572 -2.19535 -0.109554
HEad  -15.2336 11.9546 -6.08406
LeftShoulder1  -0.0859085 3.73991 -30.2869
LeftArm  3.66402 7.03289 -42.5592
LeftForeArm  19.2147 -31.4657 -5.82262
LeftHand  -0.129741 0.565382 3.15717
RightShoulder  -0.558209 -5.19602 26.2193
RightArm  11.4745 -6.95135 42.632
RightForeArm  1.89795 12.3496 5.67407
RightHand  -0.487708 2.92329 -7.02643
LeftUpLeg  9.04608 0.227735 -5.83481
LeftLeg  16.6855 -17.2122 -2.69457
LeftFoot  -15.2846 0.795379 20.198
LeftToes  3.24686e-010 -7.02549e-012 1.39809e-011
475
root  -32.592 38.9875 -17.4454 -3.57117 -4.84483 -4.49174
RightUpLeg  -13.8919 -3.15382 -1.11663
RightLeg  3.94907 25.6215 0.345757
RightFoot  3.03066 -1.5921 12.6579
RightToes  2.96859e-009 0 -3.6325e-017
Spine  7.47827 -1.87689 1.93675
Spine1  8.26821 -1.82005 -0.711508
HEad  -14.4433 14.1058 -6.83646
LeftShoulder1  -0.132266 3.86691 -30.2889
LeftArm  3.63637 6.92515 -42.1734
LeftForeArm  15.7889 -27.2354 -4.98765
LeftHand  -0.127786 2.15885 4.19654
RightShoulder  -0.608436 -5.32707 26.6443
RightArm  10.3652 -6.64336 42.6683
RightForeArm  1.90072 11.8771 5.49893
RightHand  -0.477646 2.91324 -6.8857
LeftUpLeg  10.964 -4.01773 -6.26074
LeftLeg  16.6069 -15.1063 -2.48048
LeftFoot  -16.2378 0.943433 19.5744
LeftToes  3.24686e-010 -7.02549e-012 1.39809e-011
476
root  -32.8576 38.8514 -16.5133 -3.86841 -2.38579 -4.97073
RightUpLeg  -14.6642 -0.351724 -1.25871
RightLeg  9.77871 20.8113 1.88395
RightFoot  3.05633 -1.4481 11.5467
RightToes  2.96859e-009 0 -3.6325e-017
Spine  7.90597 -1.98712 4.62503
Spine1  7.9368 -1.56443 -1.53334
HEad  -13.7403 16.6074 -8.48432
LeftShoulder1  -0.224605 4.11339 -30.6908
LeftArm  3.02782 7.12523 -41.6088
LeftForeArm  13.5278 -22.9065 -4.38838
LeftHand  -0.125419 2.52557 4.73761
RightShoulder  -0.635063 -5.40081 26.769
RightArm  10.0268 -6.18021 42.796
RightForeArm  0.465252 11.8179 5.50729
RightHand  -0.596207 2.61249 -8.86174
LeftUpLeg  12.2368 -9.85463 -6.82173
LeftLeg  18.1921 -11.3412 -2.88808
LeftFoot  -17.32 1.08388 18.5932
LeftToes  3.24686e-010 -7.02549e-012 1.39809e-011
477
root  -33.021 38.8129 -15.5774 -3.80804 0.15744 -5.82634
RightUpLeg  -14.9373 1.96436 -1.45628
RightLeg  13.9863 16.0814 3.3291
RightFoot  0.613298 -0.982859 9.42163
RightToes  2.96859e-009 0 -3.6325e-017
Spine  7.77991 -2.25548 8.0337
Spine1  7.75368 -1.40047 -2.50538
HEad  -12.9807 20.4033 -10.4879
LeftShoulder1  -0.280624 4.25198 -31.401
LeftArm  -0.489252 7.77551 -41.0437
LeftForeArm  13.3946 -18.664 -5.02361
LeftHand  -0.0908626 3.94204 5.83543
RightShoulder  -0.585612 -5.26402 26.5239
RightArm  10.0892 -5.41139 43.101
RightForeArm  0.385244 11.5534 5.60852
RightHand  -0.540555 2.13842 -8.53038
LeftUpLeg  11.9601 -13.8487 -6.53962
LeftLeg  21.8328 -9.24801 -3.8258
LeftFoot  -17.1817 0.975749 16.9503
LeftToes  3.24686e-010 -7.02549e-012 1.39809e-011
478
root  -33.1563 38.9072 -14.7029 -3.39978 4.2057 -5.86415
RightUpLeg  -14.3344 -0.196352 -1.89954
RightLeg  15.8403 14.3873 3.64431
RightFoot  -1.57997 -0.72917 8.40361
RightToes  2.96859e-009 0 -3.6325e-017
Spine  6.81035 -2.56946 9.36059
Spine1  8.13653 -1.77363 -1.5882
HEad  -11.6973 24.6924 -11.5803
LeftShoulder1  -0.24507 4.15639 -31.388
LeftArm  -4.41322 8.56376 -41.0708
LeftForeArm  15.6708 -14.2931 -6.12696
LeftHand  -0.0381791 5.0406 5.3777
RightShoulder  -0.568337 -5.21526 26.442
RightArm  10.4557 -4.97354 43.1506
RightForeArm  1.20909 11.7787 5.62887
RightHand  -0.454275 2.66086 -6.75657
LeftUpLeg  9.66903 -14.3553 -5.3538
LeftLeg  27.2966 -11.5633 -6.15432
LeftFoot  -14.7584 0.509495 13.9623
LeftToes  3.24686e-010 -7.02549e-012 1.39809e-011
479
root  -33.3138 39.0388 -13.9119 -2.9101 8.7023 -6.03308
RightUpLeg  -13.216 -3.46225 -1.84048
RightLeg  16.3395 13.3832 3.33697
RightFoot  -3.18708 -0.558341 7.52547
RightToes  2.96859e-009 0 -3.6325e-017
Spine  6.48535 -2.58074 10.9232
Spine1  7.44882 -1.66473 -0.974499
HEad  -10.1828 26.6701 -11.5939
LeftShoulder1  -0.198766 4.04585 -30.5565
LeftArm  -5.38457 9.51225 -41.5328
LeftForeArm  16.9764 -11.5292 -6.90776
LeftHand  -0.0399151 4.92006 4.61015
RightShoulder  -0.627653 -5.38696 26.6139
RightArm  11.3221 -5.55222 42.8229
RightForeArm  0.43705 12.8872 5.6002
RightHand  -0.448772 2.3118 -6.96207
LeftUpLeg  5.24116 -12.3597 -2.33085
LeftLeg  35.0969 -15.2314 -10.8913
LeftFoot  -10.5791 0.0250285 8.35281
LeftToes  3.24686e-010 -7.02549e-012 1.39809e-011
480
root  -33.4287 39.1273 -13.1747 -2.63013 12.6226 -5.99069
RightUpLeg  -11.9641 -6.42574 -2.24286
RightLeg  16.7924 12.5645 3.50868
RightFoot  -4.93417 -0.429899 7.06856
RightToes  2.96859e-009 0 -3.6325e-017
Spine  6.61522 -2.22102 12.7241
Spine1  6.9165 -0.983564 -1.03708
HEad  -10.0626 28.1085 -11.3957
LeftShoulder1  -0.20427 4.05829 -30.7045
LeftArm  -3.39525 10.2338 -40.6292
LeftForeArm  17.7708 -11.5674 -7.39095
LeftHand  -0.0433449 4.12825 2.08583
RightShoulder  -0.593465 -5.30288 26.2484
RightArm  12.4794 -6.44885 42.8261
RightForeArm  -0.390089 14.7029 5.42084
RightHand  -0.472525 2.22524 -7.39128
LeftUpLeg  0.36512 -9.66747 0.153742
LeftLeg  42.8347 -15.3616 -14.3713
LeftFoot  -5.73273 0.147502 -1.71991
LeftToes  3.24686e-010 -7.02549e-012 1.39809e-011
481
root  -33.5174 39.1851 -12.4583 -3.30585 16.6274 -5.94122
RightUpLeg  -9.71989 -8.84156 -2.94027
RightLeg  17.3721 11.2296 3.79376
RightFoot  -6.65059 -0.31501 6.57859
RightToes  2.96859e-009 0 -3.6325e-017
Spine  7.7031 -2.08298 14.778
Spine1  6.59204 -0.146301 -2.10385
HEad  -10.7878 28.5864 -11.0648
LeftShoulder1  -0.171044 3.97125 -30.4667
LeftArm  -0.0506943 11.4023 -39.8941
LeftForeArm  18.3444 -13.9642 -7.07472
LeftHand  -0.0332869 3.75687 0.939719
RightShoulder  -0.616571 -5.35859 26.5217
RightArm  14.6387 -6.36371 42.4288
RightForeArm  -1.64156 16.026 5.49101
RightHand  -0.513544 3.01059 -7.32154
LeftUpLeg  -3.48132 -7.15777 1.86346
LeftLeg  49.4609 -12.5335 -14.7724
LeftFoot  -1.6568 0.896029 -10.8649
LeftToes  3.24686e-010 -7.02549e-012 1.39809e-011
482
root  -33.5934 39.267 -11.7568 -3.50287 20.5891 -5.60957
RightUpLeg  -7.67288 -10.0538 -3.69066
RightLeg  17.3552 8.69603 3.39281
RightFoot  -7.95621 -0.235305 6.12542
RightToes  2.96859e-009 0 -3.6325e-017
Spine  7.94892 -1.94824 15.7229
Spine1  6.84043 0.369575 -2.82608
HEad  -11.5674 28.769 -11.0916
LeftShoulder1  -0.15784 3.93447 -30.52
LeftArm  4.30432 12.8855 -39.0347
LeftForeArm  16.834 -17.4254 -5.99342
LeftHand  -0.0298978 3.57509 0.612428
RightShoulder  -0.584011 -5.26562 26.403
RightArm  16.7343 -5.17813 42.7274
RightForeArm  -1.41355 16.4185 5.67447
RightHand  -0.506706 3.11224 -7.14575
LeftUpLeg  -7.73061 -4.23618 2.71351
LeftLeg  54.6291 -8.09675 -11.6059
LeftFoot  -0.180215 0.924074 -9.40437
LeftToes  3.24686e-010 -7.02549e-012 1.39809e-011
483
root  -33.6182 39.4034 -11.0178 -3.27124 24.3951 -4.8047
RightUpLeg  -5.40606 -11.2711 -4.90465
RightLeg  16.6009 6.34409 3.13957
RightFoot  -8.98808 -0.183865 5.99248
RightToes  2.96859e-009 0 -3.6325e-017
Spine  8.18327 -1.79711 15.9089
Spine1  6.43259 0.721645 -3.71265
HEad  -11.7597 28.7401 -11.4108
LeftShoulder1  -0.185763 4.00971 -30.5921
LeftArm  6.22957 14.7581 -38.4694
LeftForeArm  15.1763 -19.9707 -4.93788
LeftHand  -0.050414 2.52802 1.55838
RightShoulder  -0.595306 -5.31081 26.2087
RightArm  18.5329 -4.02189 42.9647
RightForeArm  -1.38885 16.847 5.77375
RightHand  -0.563866 2.83227 -8.16523
LeftUpLeg  -11.8049 -0.795513 2.84128
LeftLeg  57.3764 -4.75594 -7.50274
LeftFoot  -0.738445 0.58327 -6.24769
LeftToes  3.24686e-010 -7.02549e-012 1.39809e-011
484
root  -33.6122 39.5451 -10.2925 -2.57819 27.8459 -3.8886
RightUpLeg  -3.47395 -11.7108 -5.79924
RightLeg  15.4856 3.69428 2.5402
RightFoot  -9.70143 -0.157602 6.37714
RightToes  2.96859e-009 0 -3.6325e-017
Spine  8.30892 -1.30337 15.8513
Spine1  5.79289 1.27484 -4.60462
HEad  -11.6727 27.6854 -11.4849
LeftShoulder1  -0.163152 3.94675 -30.7083
LeftArm  6.00474 16.132 -38.307
LeftForeArm  13.4355 -21.1647 -4.55966
LeftHand  -0.0574586 2.70723 1.91233
RightShoulder  -0.623224 -5.40804 26.0128
RightArm  19.0115 -3.82811 42.8182
RightForeArm  -1.18546 18.1892 5.42558
RightHand  -0.496929 2.95861 -7.16979
LeftUpLeg  -15.5556 2.59312 2.36365
LeftLeg  57.0957 -3.05497 -4.5879
LeftFoot  -1.13256 0.467733 -5.15649
LeftToes  3.24686e-010 -7.02549e-012 1.39809e-011
485
root  -33.5242 39.6511 -9.53628 -2.41498 31.7973 -2.9662
RightUpLeg  -0.6199 -12.3012 -6.88976
RightLeg  14.3376 0.96625 2.16615
RightFoot  -10.4885 -0.121064 6.79362
RightToes  2.96859e-009 0 -3.6325e-017
Spine  8.53479 -1.02533 15.2113
Spine1  5.71617 1.45005 -4.65673
HEad  -11.4486 26.3665 -11.4956
LeftShoulder1  -0.155602 3.92446 -30.8542
LeftArm  4.07534 16.8668 -38.8734
LeftForeArm  12.8749 -21.0348 -4.56893
LeftHand  -0.0665764 2.75253 2.34645
RightShoulder  -0.628188 -5.43536 25.8038
RightArm  18.7608 -4.05743 42.1763
RightForeArm  -2.22431 19.8399 5.09669
RightHand  -0.479101 4.0448 -6.15145
LeftUpLeg  -17.8727 4.85123 1.29431
LeftLeg  54.0993 -3.5333 -4.74277
LeftFoot  -2.42391 0.397429 -4.91577
LeftToes  3.24686e-010 -7.02549e-012 1.39809e-011
